Coordinates
version=1
nRows=4
nColumns=107
inDegrees=yes

Units are S.I. units (second, meters, Newtons, ...)
If the header above contains a line with 'inDegrees', this indicates whether rotational values are in degrees (yes) or radians (no).

endheader
time	sternoclavicular_r2	sternoclavicular_r3	unrotscap_r3	unrotscap_r2	acromioclavicular_r2	acromioclavicular_r3	acromioclavicular_r1	unrothum_r1	unrothum_r3	unrothum_r2	elv_angle	shoulder_elv	shoulder1_r2	shoulder_rot	elbow_flexion	pro_sup	deviation	flexion	proximal_distal_r1	proximal_distal_r3	cmc_flexion	cmc_abduction	mp_flexion	ip_flexion	mcp2_flexion	mcp2_abduction	pm2_flexion	md2_flexion	mcp3_flexion	mcp3_abduction	pm3_flexion	md3_flexion	mcp4_flexion	mcp4_abduction	pm4_flexion	md4_flexion	mcp5_flexion	mcp5_abduction	pm5_flexion	md5_flexion	bicpt_tx	bicpt_ty	bicpt_tz	bicpt2_tx	bicpt2_ty	bicpt2_tz	ptpt_tx	ptpt_ty	ptpt_tz	FCUpt_tx	FCUpt_ty	FCUpt_tz	EDCpt_tx	EDCpt_ty	EDCpt_tz	APLpt_tx	APLpt_ty	APLpt_tz	FPLpt_tx	FPLpt_ty	FPLpt_tz	FPLpt2_tx	FPLpt2_ty	FPLpt2_tz	PEC1pt2_tx	PEC1pt2_ty	PEC1pt2_tz	PEC1pt3_tx	PEC1pt3_ty	PEC1pt3_tz	PEC2pt2_tx	PEC2pt2_ty	PEC2pt2_tz	PEC2pt3_tx	PEC2pt3_ty	PEC2pt3_tz	PEC3pt2_tx	PEC3pt2_ty	PEC3pt2_tz	PEC3pt3_tx	PEC3pt3_ty	PEC3pt3_tz	DELT2pt2a_tx	DELT2pt2a_ty	DELT2pt2a_tz	DELT2pt2_tx	DELT2pt2_ty	DELT2pt2_tz	LAT1pt2_tx	LAT1pt2_ty	LAT1pt2_tz	LAT1pt3_tx	LAT1pt3_ty	LAT1pt3_tz	LAT2pt2_tx	LAT2pt2_ty	LAT2pt2_tz	LAT2pt3_tx	LAT2pt3_ty	LAT2pt3_tz	LAT3pt2_tx	LAT3pt2_ty	LAT3pt2_tz	LAT3pt3_tx	LAT3pt3_ty	LAT3pt3_tz
      0.36666667	     -0.32223738	      0.13648454	     -0.13648454	      0.32223738	     -0.06524651	      0.52729937	      0.23701744	     -0.23701744	     -0.52729937	      0.06524651	    100.19358457	     76.29256286	     -1.74870794	    -27.26613797	     29.18615195	     54.71398262	      0.22592819	      0.53389837	      0.26483729	      0.26694918	     38.85264568	    -12.28405648	     24.25931144	      7.58078758	    -32.82787790	     13.99740368	      6.69227230	    -27.07594860	    -43.67409614	      8.49982350	      6.72395244	     10.56577923	    -42.93856714	      3.32317737	     -5.05681089	     19.99012036	    -30.25162610	    -14.46353735	    -10.48702677	      5.01230477	      0.00086539	     -0.03094518	     -0.00483882	      0.01635425	     -0.01812856	     -0.00574751	      0.00350725	     -0.06751411	     -0.00445750	      0.00929503	     -0.18315824	     -0.00040935	     -0.00656566	      0.00201220	     -0.00001788	     -0.00078496	     -0.00031399	     -0.00156993	     -0.00100475	     -0.00301426	     -0.00169552	     -0.00001165	     -0.00013269	     -0.00015923	      0.00250070	      0.00877365	      0.00610341	     -0.00818027	      0.01975131	     -0.01873408	      0.00250070	      0.00877365	      0.00610341	      0.00055100	      0.01831023	     -0.00962135	      0.00395269	      0.00487892	      0.01597925	      0.00000000	      0.00778438	      0.00000000	     -0.00716303	     -0.03310252	     -0.00641860	      0.01761613	     -0.00066489	     -0.00621431	     -0.00089008	      0.01491945	     -0.00610341	      0.00245832	      0.02153147	     -0.01780161	     -0.00597626	      0.01292736	     -0.00546764	     -0.01246113	      0.02729581	     -0.03055944	     -0.02339641	      0.01445321	     -0.00733257	     -0.01551283	      0.03153429	     -0.03818870
      0.40000000	     -0.32223420	      0.13648320	     -0.13648320	      0.32223420	     -0.06524587	      0.52729417	      0.23701510	     -0.23701510	     -0.52729417	      0.06524587	    100.11536364	     76.29181027	     -1.74734273	    -27.10421738	     29.36762246	     54.89062885	      0.22582404	      0.53276437	      0.26473402	      0.26638219	     38.84112641	    -12.14508338	     24.26659980	      7.59004881	    -32.95049461	     14.00960574	      6.66019599	    -27.08707427	    -43.69542593	      8.50577730	      6.73774834	     10.56154248	    -42.91505871	      3.34110585	     -5.04318573	     19.98027538	    -30.26300704	    -14.45532506	    -10.49692971	      5.00911009	      0.00087139	     -0.03096598	     -0.00484217	      0.01634860	     -0.01817786	     -0.00572499	      0.00349420	     -0.06752255	     -0.00447173	      0.00931362	     -0.18315382	     -0.00040863	     -0.00658686	      0.00202019	     -0.00002056	     -0.00078279	     -0.00031312	     -0.00156559	     -0.00100197	     -0.00300592	     -0.00169083	     -0.00001166	     -0.00013290	     -0.00015948	      0.00250068	      0.00877357	      0.00610335	     -0.00818018	      0.01975112	     -0.01873389	      0.00250068	      0.00877357	      0.00610335	      0.00055100	      0.01831005	     -0.00962125	      0.00395266	      0.00487887	      0.01597918	      0.00000000	      0.00778422	      0.00000000	     -0.00716296	     -0.03310220	     -0.00641847	      0.01753825	     -0.00065950	     -0.00614124	     -0.00089007	      0.01491930	     -0.00610335	      0.00245829	      0.02153126	     -0.01780144	     -0.00597620	      0.01292723	     -0.00546758	     -0.01246101	      0.02729554	     -0.03055913	     -0.02339617	      0.01445307	     -0.00733250	     -0.01551268	      0.03153397	     -0.03818832
      0.43333333	     -0.32548519	      0.13786017	     -0.13786017	      0.32548519	     -0.06590413	      0.53261400	      0.23940633	     -0.23940633	     -0.53261400	      0.06590413	     99.40958239	     77.06151237	     -1.73502452	    -23.14900135	     28.97453059	     50.89363985	      0.23017206	      0.48517444	      0.26901217	      0.24258722	     38.04492225	    -11.15061018	     23.62386997	      7.60838697	    -33.18530216	     13.99376057	      7.09895440	    -29.29087157	    -42.87230536	      8.54641362	      6.71842772	     10.13120901	    -41.45563445	      3.34180301	     -5.14725312	     20.34165201	    -30.34541173	    -14.46132454	     -9.87460641	      5.01649698	      0.00085839	     -0.03092092	     -0.00483491	      0.01645901	     -0.01807107	     -0.00622392	      0.00378953	     -0.06733158	     -0.00414976	      0.00889531	     -0.18325160	     -0.00041907	     -0.00610722	      0.00184170	      0.00003606	     -0.00069353	     -0.00027741	     -0.00138706	     -0.00088772	     -0.00266315	     -0.00149802	     -0.00001224	     -0.00014703	     -0.00017643	      0.00252591	      0.00886208	      0.00616493	     -0.00826271	      0.01995039	     -0.01892290	      0.00252591	      0.00886208	      0.00616493	      0.00055656	      0.01849478	     -0.00971832	      0.00398166	      0.00492809	      0.01604947	      0.00000000	      0.00794322	      0.00000000	     -0.00723523	     -0.03343616	     -0.00655045	      0.01552708	     -0.00053057	     -0.00446776	     -0.00089905	      0.01506982	     -0.00616493	      0.00248310	      0.02174849	     -0.01798103	     -0.00603649	      0.01305766	     -0.00552275	     -0.01258672	      0.02757092	     -0.03086744	     -0.02363222	      0.01459889	     -0.00740647	     -0.01566919	      0.03185212	     -0.03857360
      0.46666667	     -0.32823397	      0.13902442	     -0.13902442	      0.32823397	     -0.06646070	      0.53711202	      0.24142816	     -0.24142816	     -0.53711202	      0.06646070	     98.98029022	     77.71231092	     -1.72753196	    -20.49401119	     29.22713189	     53.52451298	      0.28827429	      0.61480584	      0.32320917	      0.30740292	     39.45283460	    -12.47011424	     21.96762303	      8.35663357	    -37.76846870	     13.85225869	      7.98679499	    -21.18644992	    -43.91202894	      7.74423494	      8.29757895	     10.73857522	    -40.06960074	      2.69239414	     -2.87921037	     17.42204954	    -25.75702268	    -14.44551818	    -12.34694639	      5.00896963	      0.00086674	     -0.03094988	     -0.00483958	      0.01639079	     -0.01813969	     -0.00589825	      0.00359514	     -0.06745728	     -0.00436169	      0.00917005	     -0.18318780	     -0.00041367	     -0.00642293	      0.00195859	     -0.00000016	     -0.00094546	     -0.00037818	     -0.00189091	     -0.00121018	     -0.00363055	     -0.00204219	     -0.00001109	     -0.00012159	     -0.00014591	      0.00254724	      0.00893692	      0.00621699	     -0.00833249	      0.02011887	     -0.01908271	      0.00254724	      0.00893692	      0.00621699	      0.00056126	      0.01865097	     -0.00980039	      0.00400600	      0.00496971	      0.01610781	      0.00000000	      0.00807895	      0.00000000	     -0.00729633	     -0.03371854	     -0.00666309	      0.01406010	     -0.00044715	     -0.00347112	     -0.00090664	      0.01519709	     -0.00621699	      0.00250407	      0.02193216	     -0.01813289	     -0.00608747	      0.01316793	     -0.00556939	     -0.01269302	      0.02780376	     -0.03112812	     -0.02383180	      0.01472218	     -0.00746902	     -0.01580152	      0.03212112	     -0.03889936
